<svg width="34" height="40" viewBox="0 0 34 40" fill="none" xmlns="http://www.w3.org/2000/svg">
<g id="Layer 1">
<g id="Group 2105">
<path id="Vector" d="M17.2873 39.9966C21.7164 40.0812 26.0249 38.5659 29.4075 35.7341L29.5807 35.5913L29.748 35.4542C31.6479 33.7733 32.9679 31.5453 33.5226 29.0833V29.0147C32.8544 30.0374 31.9381 30.8781 30.8574 31.4599C29.7766 32.0418 28.5658 32.3464 27.3355 32.3459C23.2666 32.3459 19.9653 30.3403 19.9653 25.0779V8.99353C19.9653 3.58827 15.7117 0 10.2518 0C4.79197 0 0.203613 3.58827 0.203613 8.99353V25.3807C0.206337 26.4562 0.343983 27.5272 0.613391 28.569C0.642249 28.7176 0.688421 28.8547 0.723051 28.9976C0.75768 29.1404 0.774994 29.2033 0.809623 29.3061C2.64497 36.0655 9.20719 39.9966 17.0449 39.9966H17.2873Z" fill="url(#paint0_linear_2_449)"/>
<path id="Vector_2" d="M33.794 26.7804C33.9267 20.3581 28.5361 15.1528 22.0489 15.1528H19.9712V25.0834C19.9712 30.3516 23.2725 32.3514 27.3414 32.3514C28.5687 32.3513 29.7764 32.0475 30.8549 31.4678C31.9334 30.888 32.8485 30.0506 33.517 29.0317C33.6824 28.2919 33.7752 27.5379 33.794 26.7804Z" fill="url(#paint1_linear_2_449)"/>
<path id="Vector_3" opacity="0.1" d="M27.9243 31.78C23.8554 31.78 20.5541 29.7745 20.5541 24.512L20.0058 15.1528H19.9712V25.0834C19.9712 30.3516 23.2725 32.3514 27.3414 32.3514C28.3733 32.3509 29.3935 32.1348 30.3353 31.7174C31.2771 31.2999 32.1194 30.6904 32.8071 29.9287C31.465 31.1195 29.7266 31.7787 27.9243 31.78Z" fill="#231F20"/>
<path id="Vector_4" d="M27.272 32.403C25.0961 32.403 23.2723 31.8317 22.0142 30.7232C20.5655 29.4662 19.8325 27.5577 19.8325 25.0608L19.971 14.9131V25.0665C19.971 31.3517 24.5421 32.2659 27.272 32.2659C28.5326 32.225 29.7646 31.8831 30.863 31.2693C31.9613 30.6554 32.8936 29.7879 33.5803 28.7405L33.5168 29.0433C32.8425 30.0754 31.9176 30.9237 30.8266 31.5106C29.7357 32.0975 28.5136 32.4044 27.272 32.403Z" fill="#61F5A9"/>
</g>
</g>
<defs>
<linearGradient id="paint0_linear_2_449" x1="16.866" y1="0.371397" x2="16.866" y2="39.9052" gradientUnits="userSpaceOnUse">
<stop stop-color="#43F49F"/>
<stop offset="1" stop-color="#1ED292"/>
</linearGradient>
<linearGradient id="paint1_linear_2_449" x1="26.8855" y1="14.7014" x2="26.8855" y2="32.7799" gradientUnits="userSpaceOnUse">
<stop stop-color="#2378D6"/>
<stop offset="1" stop-color="#3DC2C9"/>
</linearGradient>
</defs>
</svg>
